<svg width="28" height="32" viewBox="0 0 28 32" fill="none" xmlns="http://www.w3.org/2000/svg">
<path d="M26.3401 29.3226C26.8019 29.7191 26.9485 30.4416 26.8453 31.0283C26.1174 31.0935 25.547 30.9305 25.1179 30.5122C24.7485 30.61 24.3031 30.8273 24.0749 31.0065C23.95 30.7132 23.8087 30.4742 23.624 30.2243C21.9727 31.3379 20.0388 30.9631 17.4097 30.9957C18.5396 30.5828 19.0284 30.3981 19.7889 29.9853C21.3371 29.1487 21.7174 28.3665 23.0211 28.2633C23.1189 27.6549 23.0971 27.6006 23.0537 27.2258C23.3959 27.2529 23.6675 27.2638 23.9663 27.204C23.9554 26.3458 24.3791 25.6504 24.4552 25.5309C24.5855 25.3245 24.6779 25.1235 24.8897 24.8085C25.6122 23.7329 26.4488 21.6795 26.791 20.1151L26.829 25.4983C26.7421 26.449 26.6117 26.9922 26.0902 27.7853C26.3293 27.9917 26.5574 28.0949 26.829 28.2253C26.6172 28.5403 26.4325 28.9369 26.3456 29.3226H26.3401ZM26.5411 28.3285C26.2532 28.2687 25.9381 27.9754 25.9055 27.9319C25.9055 27.9319 25.9055 27.9319 25.9055 27.9265C25.9055 27.9265 25.9055 27.9265 25.9055 27.9319C25.9055 27.9808 25.6665 28.2959 25.2971 28.5132V28.5295C25.3352 28.6055 25.3569 28.6924 25.3623 28.7739L25.3732 28.7576C25.3732 28.7576 26.3347 28.4045 26.5357 28.3231L26.5411 28.3285ZM25.748 23.7818C25.0147 25.4006 23.9717 26.2697 24.3031 27.6658C24.3031 27.6658 24.3574 27.9428 24.5312 28.1492C24.629 28.1275 24.83 28.1492 24.83 28.1492C25.5525 26.2534 26.1554 24.5369 26.5737 22.2173C26.6335 21.8316 26.6606 21.2939 26.6878 20.8647C26.4759 21.7502 26.7041 21.6524 25.7372 23.7818H25.748ZM23.3361 27.5137C23.3361 27.5137 23.3905 27.7744 23.2764 28.2687C23.2764 28.2687 23.5806 28.2796 24.0423 28.5023V28.4915C24.0749 28.4371 24.1129 28.3882 24.1618 28.3448C24.189 28.3176 24.2107 28.2959 24.2379 28.2796L23.3416 27.5245L23.3361 27.5137ZM19.262 30.7458C20.8048 30.3927 23.0156 29.5779 23.9826 29.0999V29.0836C23.9554 28.9966 23.95 28.9043 23.9554 28.8174V28.7794C23.711 28.6436 23.4394 28.5566 23.1134 28.5566C21.7119 28.5838 21.185 29.7843 19.1154 30.5665L18.1593 30.8599C18.4418 30.849 18.8057 30.8544 19.262 30.7512V30.7458ZM24.1836 30.6806L24.591 29.5344H24.5801C24.4769 29.529 24.3791 29.4964 24.2868 29.4421H24.2813C24.1836 29.6757 24.1238 29.8115 23.8359 30.0559C24.0478 30.2949 24.1292 30.5339 24.1836 30.6806ZM24.3682 29.127C24.5258 29.2845 24.7865 29.29 24.9441 29.127C25.1016 28.9695 25.107 28.7087 24.9441 28.5512C24.7865 28.3937 24.5258 28.3882 24.3628 28.5512C24.2053 28.7087 24.1999 28.9695 24.3628 29.127H24.3682ZM25.2591 30.2732C25.5959 30.686 26.0685 30.8164 26.6117 30.7621L25.1776 29.3063C25.1016 29.4095 24.9821 29.4747 24.8734 29.5018C24.9549 29.8332 25.0418 30.0233 25.2537 30.2732H25.2591Z" fill="#E40520"/>
<path d="M26.8454 0.0162162C26.9486 0.602888 26.8019 1.32536 26.3402 1.72191C26.4325 2.10759 26.6118 2.50414 26.8236 2.8192C26.552 2.95501 26.3185 3.05279 26.0849 3.25921C26.6064 4.0523 26.7367 4.59008 26.8236 5.54614L26.7856 10.9294C26.438 9.36494 25.6014 7.31159 24.8844 6.23602C24.6725 5.92096 24.5802 5.7254 24.4498 5.51355C24.3737 5.39404 23.95 4.69329 23.9609 3.84045C23.6676 3.78069 23.396 3.79156 23.0483 3.81872C23.0918 3.4439 23.1135 3.39501 23.0157 2.78118C21.712 2.67797 21.3317 1.89574 19.7836 1.05919C19.0285 0.651777 18.5396 0.461652 17.4043 0.048809C20.0335 0.0814019 21.9673 -0.293416 23.6187 0.820174C23.8088 0.570295 23.9446 0.331281 24.0695 0.0379447C24.2977 0.217206 24.7431 0.434491 25.1125 0.53227C25.5362 0.113995 26.1066 -0.0544017 26.8399 0.0162162H26.8454ZM26.5412 2.71599C26.3402 2.63451 25.3787 2.28142 25.3787 2.28142L25.3678 2.26513C25.3678 2.34661 25.3407 2.43352 25.3081 2.50957V2.52587C25.672 2.74859 25.9056 3.05822 25.911 3.10711C25.9436 3.06365 26.2587 2.77031 26.5466 2.71056L26.5412 2.71599ZM25.7481 7.2627C26.7096 9.3921 26.4814 9.29976 26.6987 10.1798C26.6715 9.75606 26.6444 9.21827 26.5846 8.82716C26.1663 6.50763 25.5634 4.79107 24.8409 2.89525C24.8409 2.89525 24.6399 2.91155 24.5421 2.89525C24.3683 3.09624 24.314 3.37871 24.314 3.37871C23.9772 4.77478 25.0256 5.64392 25.7589 7.2627H25.7481ZM23.3362 3.53082L24.2325 2.78118C24.2053 2.75402 24.1782 2.73229 24.1565 2.70513C24.113 2.66167 24.075 2.61278 24.0424 2.55846V2.5476C23.5806 2.77031 23.271 2.78118 23.271 2.78118C23.3851 3.2755 23.3308 3.53625 23.3308 3.53625L23.3362 3.53082ZM19.2621 0.298688C18.8112 0.195477 18.4473 0.200909 18.1594 0.190045L19.1154 0.483381C21.1851 1.26018 21.7174 2.46068 23.1135 2.49328C23.4394 2.49328 23.711 2.40636 23.95 2.27056V2.23253C23.9446 2.14562 23.95 2.05327 23.9772 1.96636V1.95006C23.0103 1.47203 20.7994 0.657209 19.2567 0.30412L19.2621 0.298688ZM24.1836 0.358441C24.1293 0.505109 24.0532 0.744124 23.836 0.983138C24.1239 1.22758 24.1836 1.35796 24.2814 1.59697H24.2868C24.3792 1.53722 24.477 1.51006 24.5802 1.49919H24.591L24.1836 0.358441ZM24.3683 1.91747C24.2108 2.075 24.2108 2.33574 24.3683 2.49328C24.5258 2.65081 24.7866 2.65081 24.9495 2.49328C25.1071 2.33574 25.1071 2.075 24.9495 1.91747C24.792 1.75994 24.5313 1.75994 24.3737 1.91747H24.3683ZM25.2592 0.771285C25.0473 1.01573 24.955 1.20586 24.8789 1.54265C24.9821 1.57524 25.1071 1.635 25.1831 1.73821L26.6172 0.282391C26.074 0.233502 25.6014 0.358441 25.2646 0.771285H25.2592Z" fill="#E40520"/>
<path d="M0.0323973 31.0283C-0.0708135 30.4416 0.0758545 29.7191 0.537587 29.3226C0.445241 28.9369 0.26598 28.5403 0.0541259 28.2253C0.325733 28.0895 0.559316 27.9917 0.792898 27.7853C0.271412 26.9922 0.14104 26.4544 0.0541259 25.4983L0.0921509 20.1151C0.439808 21.6795 1.27636 23.7329 1.9934 24.8085C2.20526 25.1235 2.2976 25.3191 2.42797 25.5309C2.50402 25.6504 2.92773 26.3512 2.91687 27.204C3.2102 27.2638 3.48181 27.2529 3.82947 27.2258C3.78601 27.6006 3.76428 27.6495 3.86206 28.2633C5.16578 28.3665 5.54603 29.1487 7.09419 29.9853C7.84926 30.3927 8.33815 30.5828 9.47347 30.9957C6.84431 30.9631 4.9159 31.3379 3.25909 30.2243C3.06897 30.4742 2.93316 30.7132 2.80822 31.0065C2.58007 30.8273 2.13464 30.61 1.76525 30.5122C1.34154 30.9305 0.771169 31.0935 0.0378295 31.0283H0.0323973ZM0.336598 28.3285C0.537587 28.41 1.49908 28.7631 1.49908 28.7631L1.50994 28.7794C1.50994 28.6979 1.5371 28.611 1.5697 28.5349V28.5186C1.20574 28.2959 0.972159 27.9863 0.966727 27.9374V27.9319C0.966727 27.9319 0.966727 27.9319 0.966727 27.9374C0.934134 27.9808 0.619069 28.2742 0.331165 28.3339L0.336598 28.3285ZM1.12969 23.7818C0.168201 21.6524 0.396351 21.7447 0.179065 20.8647C0.206226 21.2884 0.233387 21.8262 0.29314 22.2173C0.711416 24.5369 1.31438 26.2534 2.03686 28.1492C2.03686 28.1492 2.23242 28.1329 2.33563 28.1492C2.50946 27.9482 2.56378 27.6658 2.56378 27.6658C2.90057 26.2697 1.85217 25.4006 1.12426 23.7818H1.12969ZM3.53613 27.5137L2.63983 28.2633C2.66699 28.2905 2.69415 28.3122 2.71588 28.3394C2.75934 28.3828 2.79736 28.4317 2.82995 28.486V28.4969C3.29169 28.2742 3.60132 28.2633 3.60132 28.2633C3.48724 27.769 3.54156 27.5082 3.54156 27.5082L3.53613 27.5137ZM7.61567 30.7458C8.06654 30.849 8.4305 30.8436 8.7184 30.8544L7.76234 30.5611C5.69269 29.7843 5.16034 28.5838 3.76428 28.5512C3.43835 28.5512 3.16675 28.6381 2.92773 28.7739V28.8119C2.93316 28.9043 2.92773 28.9912 2.90057 29.0781V29.0944C3.86749 29.5725 6.07838 30.3873 7.62111 30.7404L7.61567 30.7458ZM2.68872 30.6806C2.74304 30.5339 2.81909 30.2949 3.03638 30.0559C2.74847 29.8115 2.68872 29.6811 2.59094 29.4421H2.58551C2.49316 29.4964 2.39538 29.529 2.29217 29.5399H2.28131L2.68872 30.6806ZM2.50402 29.127C2.66156 28.9695 2.66156 28.7087 2.50402 28.5512C2.34649 28.3937 2.08575 28.3937 1.92822 28.5512C1.77068 28.7087 1.77068 28.9695 1.92822 29.127C2.08575 29.2845 2.34649 29.2845 2.50402 29.127ZM1.61858 30.2732C1.83044 30.0288 1.92278 29.8386 1.99883 29.5018C1.89562 29.4692 1.77068 29.4095 1.69463 29.3063L0.260547 30.7621C0.803762 30.811 1.27636 30.686 1.61315 30.2732H1.61858Z" fill="#E40520"/>
<path d="M0.537587 1.72191C0.0758545 1.32536 -0.0708135 0.602885 0.0323973 0.0162133C0.760305 -0.0489724 1.33068 0.113992 1.75982 0.532267C2.12921 0.434489 2.57464 0.217203 2.80279 0.0379419C2.92773 0.331278 3.06354 0.570292 3.25366 0.820171C4.90503 -0.293419 6.83888 0.0813991 9.46804 0.0488062C8.33815 0.461649 7.84926 0.646342 7.08876 1.05919C5.54059 1.89574 5.16034 2.67797 3.85663 2.78118C3.75885 3.38958 3.78058 3.4439 3.82404 3.81872C3.48181 3.79156 3.2102 3.78069 2.91144 3.84044C2.9223 4.69872 2.49859 5.39404 2.42254 5.51355C2.29217 5.7254 2.19982 5.92096 1.98797 6.23602C1.26549 7.31159 0.428944 9.36494 0.0867188 10.9294L0.0486938 5.54614C0.135608 4.59551 0.26598 4.0523 0.787466 3.2592C0.548451 3.05278 0.320301 2.94957 0.0486938 2.8192C0.260547 2.50414 0.44524 2.10759 0.532155 1.72191H0.537587ZM0.336598 2.71599C0.624501 2.77574 0.939566 3.06908 0.972159 3.11254C0.972159 3.06365 1.21117 2.74858 1.58056 2.5313V2.515C1.54253 2.43895 1.52081 2.35204 1.51537 2.27055L1.50451 2.28685C1.50451 2.28685 0.543019 2.63994 0.34203 2.72142L0.336598 2.71599ZM1.12969 7.2627C1.86303 5.64392 2.906 4.77477 2.56921 3.37871C2.56921 3.37871 2.51489 3.10167 2.34106 2.89525C2.24328 2.91698 2.04229 2.89525 2.04229 2.89525C1.31982 4.79107 0.716848 6.50763 0.298573 8.82716C0.238819 9.21284 0.211658 9.75062 0.184497 10.1798C0.396351 9.29432 0.168201 9.38667 1.13512 7.2627H1.12969ZM3.53613 3.53081C3.53613 3.53081 3.48181 3.27007 3.59589 2.77574C3.59589 2.77574 3.29169 2.76488 2.82995 2.54216V2.55303C2.79193 2.60735 2.75933 2.65624 2.71045 2.69969C2.68328 2.72685 2.66156 2.74858 2.6344 2.76488L3.5307 3.51995L3.53613 3.53081ZM7.61567 0.298685C6.07294 0.651775 3.86206 1.4666 2.89514 1.94463V1.96092C2.9223 2.04784 2.92773 2.14018 2.9223 2.2271V2.26512C3.16675 2.40093 3.43835 2.48784 3.76428 2.48784C5.16578 2.46068 5.69269 1.26017 7.76234 0.477946L8.7184 0.18461C8.43593 0.195474 8.06654 0.190042 7.61567 0.293253V0.298685ZM2.68872 0.358439L2.28131 1.50462H2.29217C2.39538 1.51005 2.49316 1.54265 2.58551 1.59697H2.59094C2.68872 1.36339 2.74847 1.22758 3.03637 0.983135C2.82452 0.744121 2.74304 0.505107 2.68872 0.358439ZM2.50402 1.91746C2.34649 1.75993 2.08575 1.7545 1.92822 1.91746C1.77068 2.075 1.76525 2.33574 1.92822 2.49327C2.08575 2.6508 2.34649 2.65624 2.50402 2.49327C2.66156 2.33574 2.66699 2.075 2.50402 1.91746ZM1.61858 0.771282C1.27636 0.358439 0.809194 0.233499 0.260547 0.282389L1.69463 1.7382C1.77068 1.63499 1.89019 1.56981 1.99883 1.54265C1.91735 1.21129 1.83044 1.02116 1.61858 0.771282Z" fill="#E40520"/>
<path d="M13.4659 0.130409C20.7613 0.130409 26.6769 7.02924 26.6769 15.536C26.6769 24.0427 20.7613 30.9415 13.4659 30.9415C6.17055 30.9415 0.249512 24.0427 0.249512 15.536C0.249512 7.02924 6.16512 0.130409 13.4659 0.130409ZM4.23671 23.2062V7.86035C2.96559 10.0332 2.22138 12.6787 2.22138 15.5305C2.22138 18.3824 2.96559 21.0279 4.23671 23.2007V23.2062ZM7.07772 4.48156V26.585C7.81106 27.1879 8.60415 27.6931 9.44614 28.0788V2.98772C8.60415 3.3734 7.81106 3.87859 7.07772 4.48156ZM12.2817 2.17833V28.8936C12.6674 28.9425 13.0639 28.9642 13.4605 28.9642C13.857 28.9642 14.259 28.9371 14.6501 28.8882V2.17833C14.259 2.12944 13.8625 2.10228 13.4605 2.10228C13.0585 2.10228 12.6674 2.12944 12.2817 2.17833ZM17.4911 2.99315V28.0788C18.3331 27.6931 19.1262 27.1879 19.8596 26.5795V4.48699C19.1262 3.87859 18.3331 3.37883 17.4911 2.98772V2.99315ZM22.6951 7.87665V23.1899C23.9608 21.017 24.6996 18.377 24.6996 15.5305C24.6996 12.6841 23.9608 10.0441 22.6951 7.87122V7.87665ZM1.35767 15.536C1.35767 19.0669 2.4441 22.299 4.23671 24.7924V23.9504C2.72657 21.62 1.83027 18.7029 1.83027 15.536C1.83027 12.369 2.72657 9.45197 4.23671 7.12158V6.2796C2.43867 8.77295 1.35767 12.0051 1.35767 15.536ZM22.6951 23.9341V24.7761C24.4878 22.2827 25.5688 19.056 25.5688 15.5305C25.5688 12.0051 24.4878 8.77839 22.6951 6.28503V7.12701C24.1999 9.45741 25.0962 12.369 25.0962 15.5305C25.0962 18.6921 24.1999 21.6037 22.6951 23.9341ZM19.8596 3.39513C19.1208 2.85191 18.3277 2.39561 17.4911 2.04796V2.56944C18.3331 2.93883 19.1262 3.41686 19.8596 3.99267V3.39513ZM13.4659 1.23313C13.0694 1.23313 12.6728 1.25486 12.2872 1.29832V1.78178C12.6728 1.73289 13.0694 1.71116 13.4659 1.71116C13.8625 1.71116 14.2645 1.73289 14.6556 1.78178V1.29832C14.2645 1.25486 13.8679 1.2277 13.4659 1.2277V1.23313ZM9.44614 2.04252C8.60959 2.39018 7.81649 2.84105 7.07772 3.38427V3.9818C7.81106 3.40599 8.60959 2.92796 9.44614 2.55858V2.03709V2.04252ZM7.07772 27.6823C7.81649 28.2255 8.60959 28.6763 9.44614 29.024V28.5025C8.60415 28.1331 7.81106 27.6551 7.07772 27.0793V27.6768V27.6823ZM13.4659 29.8334C13.8679 29.8334 14.2645 29.8117 14.6556 29.7628V29.2793C14.2645 29.3282 13.8679 29.3499 13.4659 29.3499C13.0639 29.3499 12.6728 29.3282 12.2872 29.2793V29.7628C12.6783 29.8062 13.0694 29.828 13.4659 29.828V29.8334ZM17.4911 29.024C18.3277 28.6763 19.1208 28.22 19.8596 27.6768V27.0793C19.1262 27.6551 18.3277 28.1331 17.4911 28.5025V29.024Z" fill="#E40520"/>
</svg>
