<svg width="40" height="40" viewBox="0 0 40 40" fill="none" xmlns="http://www.w3.org/2000/svg">
<path d="M21.875 26.25C21.875 27.2855 21.0355 28.125 20 28.125C18.9645 28.125 18.125 27.2855 18.125 26.25C18.125 25.2145 18.9645 24.375 20 24.375C21.0355 24.375 21.875 25.2145 21.875 26.25ZM21.875 20C21.875 21.0355 21.0355 21.875 20 21.875C18.9645 21.875 18.125 21.0355 18.125 20C18.125 18.9645 18.9645 18.125 20 18.125C21.0355 18.125 21.875 18.9645 21.875 20ZM21.875 13.75C21.875 14.7855 21.0355 15.625 20 15.625C18.9645 15.625 18.125 14.7855 18.125 13.75C18.125 12.7145 18.9645 11.875 20 11.875C21.0355 11.875 21.875 12.7145 21.875 13.75Z" fill="#333333"/>
</svg>
