<svg width="40" height="40" viewBox="0 0 40 40" fill="none" xmlns="http://www.w3.org/2000/svg">
<path d="M20.1709 13.75C20.5159 13.7502 20.7959 14.03 20.7959 14.375C20.7959 14.72 20.5159 14.9998 20.1709 15H11.875C11.5298 15 11.25 15.2798 11.25 15.625V28.125C11.25 28.4702 11.5298 28.75 11.875 28.75H24.375C24.7202 28.75 25 28.4702 25 28.125V19.8291C25.0002 19.4841 25.28 19.2041 25.625 19.2041C25.97 19.2041 26.2498 19.4841 26.25 19.8291V28.125C26.25 29.1605 25.4105 30 24.375 30H11.875C10.8395 30 10 29.1605 10 28.125V15.625C10 14.5895 10.8395 13.75 11.875 13.75H20.1709ZM29.375 10C29.7202 10 30 10.2798 30 10.625V16.875C30 17.2202 29.7202 17.5 29.375 17.5C29.0298 17.5 28.75 17.2202 28.75 16.875V12.1338L18.5674 22.3174C18.3233 22.5615 17.9267 22.5615 17.6826 22.3174C17.4385 22.0733 17.4385 21.6767 17.6826 21.4326L27.8662 11.25H23.125C22.7798 11.25 22.5 10.9702 22.5 10.625C22.5 10.2798 22.7798 10 23.125 10H29.375Z" fill="#C00000"/>
</svg>
