<svg width="40" height="40" viewBox="0 0 40 40" fill="none" xmlns="http://www.w3.org/2000/svg">
<path d="M25.1831 10.1831C25.4272 9.93898 25.8229 9.93898 26.067 10.1831L29.817 13.9331C30.061 14.1771 30.061 14.5729 29.817 14.8169L17.317 27.3169C17.2571 27.3768 17.1857 27.4239 17.1071 27.4553L10.8571 29.9553C10.625 30.0482 10.3599 29.9937 10.1831 29.8169C10.0063 29.6402 9.95187 29.375 10.0447 29.1429L12.5447 22.8929C12.5762 22.8143 12.6232 22.7429 12.6831 22.6831L25.1831 10.1831ZM24.0089 13.125L26.875 15.9911L28.4911 14.375L25.625 11.5089L24.0089 13.125ZM25.9911 16.875L23.125 14.0089L15 22.1339V22.5H15.625C15.9702 22.5 16.25 22.7798 16.25 23.125V23.75H16.875C17.2202 23.75 17.5 24.0298 17.5 24.375V25H17.8661L25.9911 16.875ZM13.7896 23.3443L13.6577 23.4762L11.7469 28.2531L16.5238 26.3423L16.6557 26.2104C16.4187 26.1216 16.25 25.893 16.25 25.625V25H15.625C15.2798 25 15 24.7202 15 24.375V23.75H14.375C14.107 23.75 13.8784 23.5813 13.7896 23.3443Z" fill="#C00000"/>
</svg>
