<svg width="40" height="40" viewBox="0 0 40 40" fill="none" xmlns="http://www.w3.org/2000/svg">
<path d="M8 0.5H32C36.1421 0.5 39.5 3.85786 39.5 8V32C39.5 36.1421 36.1421 39.5 32 39.5H8C3.85786 39.5 0.5 36.1421 0.5 32V8C0.5 3.85786 3.85786 0.5 8 0.5Z" stroke="#C00000"/>
<path d="M24.6777 22.9299C25.6661 21.5841 26.25 19.9227 26.25 18.125C26.25 13.6377 22.6123 10 18.125 10C13.6377 10 10 13.6377 10 18.125C10 22.6123 13.6377 26.25 18.125 26.25C19.9232 26.25 21.585 25.6658 22.9309 24.6769L22.9299 24.6777C22.9667 24.7277 23.0078 24.7756 23.053 24.8208L27.8661 29.6339C28.3543 30.122 29.1457 30.122 29.6339 29.6339C30.122 29.1457 30.122 28.3543 29.6339 27.8661L24.8208 23.053C24.7756 23.0078 24.7277 22.9667 24.6777 22.9299ZM25 18.125C25 21.922 21.922 25 18.125 25C14.328 25 11.25 21.922 11.25 18.125C11.25 14.328 14.328 11.25 18.125 11.25C21.922 11.25 25 14.328 25 18.125Z" fill="#C00000"/>
</svg>
