<svg width="40" height="40" viewBox="0 0 40 40" fill="none" xmlns="http://www.w3.org/2000/svg">
<path d="M20 30C21.3807 30 22.5 28.8807 22.5 27.5H17.5C17.5 28.8807 18.6193 30 20 30Z" fill="#333333"/>
<path d="M20 12.3978L19.0035 12.5991C16.7194 13.0604 15 15.0808 15 17.5C15 18.2848 14.8321 20.2466 14.4264 22.1777C14.2251 23.1364 13.9557 24.1345 13.5976 25H26.4024C26.0443 24.1345 25.7749 23.1364 25.5736 22.1777C25.168 20.2466 25 18.2848 25 17.5C25 15.0808 23.2806 13.0603 20.9965 12.5991L20 12.3978ZM27.7741 25C28.0532 25.5592 28.3768 26.0012 28.75 26.25H11.25C11.6232 26.0012 11.9468 25.5592 12.2259 25C13.349 22.7492 13.75 18.599 13.75 17.5C13.75 14.4742 15.9003 11.9506 18.7561 11.3738C18.752 11.3331 18.75 11.2918 18.75 11.25C18.75 10.5596 19.3096 10 20 10C20.6904 10 21.25 10.5596 21.25 11.25C21.25 11.2918 21.248 11.3331 21.2439 11.3738C24.0998 11.9505 26.25 14.4742 26.25 17.5C26.25 18.599 26.651 22.7492 27.7741 25Z" fill="#333333"/>
</svg>
