<svg width="40" height="40" viewBox="0 0 40 40" fill="none" xmlns="http://www.w3.org/2000/svg">
<path d="M13.5827 28.5634C13.4854 29.1178 14.0324 29.5517 14.5154 29.3034L20.002 26.4835L25.4885 29.3034C25.9715 29.5517 26.5185 29.1178 26.4212 28.5634L25.3841 22.6516L29.787 18.4558C30.1985 18.0637 29.9855 17.3467 29.4342 17.2684L23.3111 16.3986L20.581 10.9904C20.3351 10.5032 19.6688 10.5032 19.4229 10.9904L16.6928 16.3986L10.5697 17.2684C10.0184 17.3467 9.80543 18.0637 10.2169 18.4558L14.6198 22.6516L13.5827 28.5634ZM19.7134 25.1033L15.1062 27.4712L15.974 22.5246C16.015 22.2915 15.938 22.0527 15.7706 21.8931L12.1371 18.4305L17.2024 17.7109C17.4118 17.6812 17.5947 17.5474 17.6935 17.3518L20.002 12.7788L22.3104 17.3518C22.4092 17.5474 22.5921 17.6812 22.8015 17.7109L27.8668 18.4305L24.2333 21.8931C24.0659 22.0527 23.989 22.2915 24.0299 22.5246L24.8977 27.4712L20.2905 25.1033C20.1085 25.0097 19.8954 25.0097 19.7134 25.1033Z" fill="#C00000"/>
</svg>
