<svg width="40" height="40" viewBox="0 0 40 40" fill="none" xmlns="http://www.w3.org/2000/svg">
<path d="M20 28.75C15.1675 28.75 11.25 24.8325 11.25 20C11.25 15.1675 15.1675 11.25 20 11.25C24.8325 11.25 28.75 15.1675 28.75 20C28.75 24.8325 24.8325 28.75 20 28.75ZM20 30C25.5228 30 30 25.5228 30 20C30 14.4772 25.5228 10 20 10C14.4772 10 10 14.4772 10 20C10 25.5228 14.4772 30 20 30Z" fill="#333333"/>
<path d="M16.5689 17.2327C16.5594 17.403 16.6999 17.5409 16.8704 17.5409H17.901C18.0736 17.5409 18.2108 17.4002 18.234 17.2291C18.3452 16.409 18.9081 15.8112 19.9115 15.8112C20.7685 15.8112 21.554 16.2396 21.554 17.2711C21.554 18.0646 21.0858 18.4296 20.3479 18.985C19.5069 19.5959 18.8404 20.3101 18.888 21.4685L18.8917 21.7395C18.894 21.9104 19.0332 22.0477 19.2041 22.0477H20.2179C20.3905 22.0477 20.5304 21.9078 20.5304 21.7352V21.6034C20.5304 20.7068 20.8716 20.4449 21.792 19.7467C22.5537 19.1675 23.3472 18.5248 23.3472 17.1759C23.3472 15.2875 21.7523 14.375 20.0067 14.375C18.4229 14.375 16.687 15.1133 16.5689 17.2327ZM18.515 24.436C18.515 25.1025 19.0467 25.5945 19.7766 25.5945C20.5384 25.5945 21.062 25.1025 21.062 24.436C21.062 23.7457 20.5384 23.2617 19.7766 23.2617C19.0467 23.2617 18.515 23.7457 18.515 24.436Z" fill="#333333"/>
</svg>
