<svg width="20" height="22" viewBox="0 0 20 22" fill="none" xmlns="http://www.w3.org/2000/svg">
<path d="M5 15.75H2.5V19.5H5V15.75ZM11.25 10.75H8.75V19.5H11.25V10.75ZM17.5 4.5V19.5H15V4.5L17.5 4.5ZM15 3.25C14.3096 3.25 13.75 3.80964 13.75 4.5V19.5C13.75 20.1904 14.3096 20.75 15 20.75H17.5C18.1904 20.75 18.75 20.1904 18.75 19.5V4.5C18.75 3.80964 18.1904 3.25 17.5 3.25H15ZM7.5 10.75C7.5 10.0596 8.05964 9.5 8.75 9.5H11.25C11.9404 9.5 12.5 10.0596 12.5 10.75V19.5C12.5 20.1904 11.9404 20.75 11.25 20.75H8.75C8.05964 20.75 7.5 20.1904 7.5 19.5V10.75ZM1.25 15.75C1.25 15.0596 1.80964 14.5 2.5 14.5H5C5.69036 14.5 6.25 15.0596 6.25 15.75V19.5C6.25 20.1904 5.69036 20.75 5 20.75H2.5C1.80964 20.75 1.25 20.1904 1.25 19.5V15.75Z" fill="#333333"/>
</svg>
